<?xml version="1.0" encoding="UTF-8"?>
<svg id="Layer_1" data-name="Layer 1" xmlns="http://www.w3.org/2000/svg" viewBox="0 0 629.83 742.2">
  <defs>
    <style>
      .cls-1 {
        fill: #fff;
      }
    </style>
  </defs>
  <path class="cls-1" d="M618.46,222h0c-11.8,44.03-51.7,74.65-97.29,74.65h0c-81.67,0-94.33,10.8-115.76,88.83l-3.29,12.27c-10.77,40.21-47.21,68.16-88.83,68.16h0c-88.04,0-101.24,9.37-124.22,95.32l-1.55,5.78c-10.77,40.21-47.21,68.16-88.83,68.16h0c-65.94,0-112.31-68.2-83.09-131.6,16.8-36.45,54.38-58.82,94.52-58.82h0c79,0,91.98-10.81,112.02-85.96l4.06-15.14c10.77-40.21,47.21-68.16,88.83-68.16h0c87.58,0,102.29-11,124.22-95.32l1.55-5.78c10.77-40.21,47.21-68.16,88.83-68.16h0c60.47,0,104.48,57.36,88.83,115.77ZM543.02,402.9h0c-39.27,0-73.64,26.37-83.8,64.3l-3.89,14.53c-17.68,69.08-33.69,80.84-105.35,80.84,0,0-63.07-2.08-89.53,55.72-27.34,59.74,16.37,123.91,78.49,123.91h0c39.27,0,73.64-26.37,83.8-64.3l3.89-14.53c18.6-69.92,32.33-80.84,105.35-80.84,0,0,75.36,2.26,94.84-70.42h0c14.76-55.1-26.76-109.21-83.8-109.21ZM86.8,339.3h0c39.27,0,73.64-26.37,83.8-64.3l3.89-14.53c17.68-69.08,33.69-80.84,105.35-80.84,0,0,63.07,2.08,89.53-55.72C396.71,64.17,353,0,290.88,0h0c-39.27,0-73.64,26.37-83.8,64.3l-3.89,14.53c-18.6,69.92-32.33,80.84-105.35,80.84,0,0-75.36-2.26-94.84,70.42h0c-14.76,55.1,26.76,109.21,83.8,109.21Z"/>
</svg>
