{
  "accessors": [
    {
      "bufferView": 0,
      "componentType": 5125,
      "count": 40290,
      "type": "SCALAR"
    },
    {
      "bufferView": 1,
      "componentType": 5126,
      "count": 7369,
      "max": [
        0.14156686524594495,
        -0.01429504672675333,
        0.0374861894793395
      ],
      "min": [
        -0.028217919162457694,
        -0.16682473127567374,
        -0.0374861894793395
      ],
      "type": "VEC3"
    },
    {
      "bufferView": 2,
      "componentType": 5126,
      "count": 7369,
      "max": [
        0.9999898716970639,
        0.9999974000717118,
        1.0
      ],
      "min": [
        -0.9999997089398891,
        -0.9999989313874594,
        -1.0
      ],
      "type": "VEC3"
    },
    {
      "bufferView": 3,
      "componentType": 5126,
      "count": 7369,
      "max": [
        1.0,
        0.781677322557096
      ],
      "min": [
        0.0,
        0.0
      ],
      "type": "VEC2"
    },
    {
      "bufferView": 4,
      "componentType": 5125,
      "count": 40290,
      "type": "SCALAR"
    },
    {
      "bufferView": 5,
      "componentType": 5126,
      "count": 7369,
      "max": [
        0.02821790634838442,
        0.1668247312756737,
        0.03748618687275125
      ],
      "min": [
        -0.14156686524594492,
        0.014295045449855576,
        -0.03748618908284036
      ],
      "type": "VEC3"
    },
    {
      "bufferView": 6,
      "componentType": 5126,
      "count": 7369,
      "max": [
        0.9999997090013159,
        0.999998931269749,
        1.0
      ],
      "min": [
        -0.9999898713346848,
        -0.999997400255308,
        -1.0
      ],
      "type": "VEC3"
    },
    {
      "bufferView": 7,
      "componentType": 5126,
      "count": 7369,
      "max": [
        1.0,
        0.781677322557096
      ],
      "min": [
        0.0,
        0.0
      ],
      "type": "VEC2"
    },
    {
      "bufferView": 8,
      "componentType": 5125,
      "count": 47202,
      "type": "SCALAR"
    },
    {
      "bufferView": 9,
      "componentType": 5126,
      "count": 8629,
      "max": [
        0.13788690728682987,
        0.11906961637070167,
        0.03808370239161604
      ],
      "min": [
        -0.13857110796659494,
        -0.11871457541099664,
        -0.03808370239161604
      ],
      "type": "VEC3"
    },
    {
      "bufferView": 10,
      "componentType": 5126,
      "count": 8629,
      "max": [
        0.9999932683472855,
        0.9999973956034662,
        1.0
      ],
      "min": [
        -0.9999996420877806,
        -0.9999973950482699,
        -1.0
      ],
      "type": "VEC3"
    },
    {
      "bufferView": 11,
      "componentType": 5126,
      "count": 8629,
      "max": [
        1.0,
        0.9729771161836269
      ],
      "min": [
        0.0,
        0.0
      ],
      "type": "VEC2"
    }
  ],
  "asset": {
    "generator": "Adobe Illustrator",
    "version": "2.0"
  },
  "bufferViews": [
    {
      "buffer": 0,
      "byteLength": 161160,
      "target": 34963
    },
    {
      "buffer": 0,
      "byteLength": 88428,
      "byteOffset": 161160,
      "target": 34962
    },
    {
      "buffer": 0,
      "byteLength": 88428,
      "byteOffset": 249588,
      "target": 34962
    },
    {
      "buffer": 0,
      "byteLength": 58952,
      "byteOffset": 338016,
      "target": 34962
    },
    {
      "buffer": 0,
      "byteLength": 161160,
      "byteOffset": 396968,
      "target": 34963
    },
    {
      "buffer": 0,
      "byteLength": 88428,
      "byteOffset": 558128,
      "target": 34962
    },
    {
      "buffer": 0,
      "byteLength": 88428,
      "byteOffset": 646556,
      "target": 34962
    },
    {
      "buffer": 0,
      "byteLength": 58952,
      "byteOffset": 734984,
      "target": 34962
    },
    {
      "buffer": 0,
      "byteLength": 188808,
      "byteOffset": 793936,
      "target": 34963
    },
    {
      "buffer": 0,
      "byteLength": 103548,
      "byteOffset": 982744,
      "target": 34962
    },
    {
      "buffer": 0,
      "byteLength": 103548,
      "byteOffset": 1086292,
      "target": 34962
    },
    {
      "buffer": 0,
      "byteLength": 69032,
      "byteOffset": 1189840,
      "target": 34962
    }
  ],
  "buffers": [
    {
      "byteLength": 1258872,
      "uri": "data:application/octet-stream;base64,"
    }
  ],
  "images": [
    {
      "name": "BaseColor",
      "uri": "data:image/png;base64,"
    },
    {
      "name": "BaseColor",
      "uri": "data:image/png;base64,"
    },
    {
      "name": "BaseColor",
      "uri": "data:image/png;base64,"
    }
  ],
  "materials": [
    {
      "doubleSided": true,
      "pbrMetallicRoughness": {
        "baseColorTexture": {
          "index": 0
        },
        "metallicFactor": 0.0,
        "roughnessFactor": 0.4000000059604645
      }
    },
    {
      "doubleSided": true,
      "pbrMetallicRoughness": {
        "baseColorTexture": {
          "index": 1
        },
        "metallicFactor": 0.0,
        "roughnessFactor": 0.4000000059604645
      }
    },
    {
      "doubleSided": true,
      "pbrMetallicRoughness": {
        "baseColorTexture": {
          "index": 2
        },
        "metallicFactor": 0.0,
        "roughnessFactor": 0.4000000059604645
      }
    }
  ],
  "meshes": [
    {
      "primitives": [
        {
          "attributes": {
            "NORMAL": 2,
            "POSITION": 1,
            "TEXCOORD_0": 3
          },
          "indices": 0,
          "material": 0,
          "mode": 4
        }
      ]
    },
    {
      "primitives": [
        {
          "attributes": {
            "NORMAL": 6,
            "POSITION": 5,
            "TEXCOORD_0": 7
          },
          "indices": 4,
          "material": 1,
          "mode": 4
        }
      ]
    },
    {
      "primitives": [
        {
          "attributes": {
            "NORMAL": 10,
            "POSITION": 9,
            "TEXCOORD_0": 11
          },
          "indices": 8,
          "material": 2,
          "mode": 4
        }
      ]
    }
  ],
  "nodes": [
    {
      "mesh": 0
    },
    {
      "mesh": 1
    },
    {
      "mesh": 2
    }
  ],
  "samplers": [
    {
      "magFilter": 9729,
      "minFilter": 9729,
      "wrapS": 10497,
      "wrapT": 10497
    },
    {
      "magFilter": 9729,
      "minFilter": 9729,
      "wrapS": 10497,
      "wrapT": 10497
    },
    {
      "magFilter": 9729,
      "minFilter": 9729,
      "wrapS": 10497,
      "wrapT": 10497
    }
  ],
  "scenes": [
    {
      "nodes": [
        0,
        1,
        2
      ]
    }
  ],
  "textures": [
    {
      "sampler": 0,
      "source": 0
    },
    {
      "sampler": 1,
      "source": 1
    },
    {
      "sampler": 2,
      "source": 2
    }
  ]
}
